<?xml version="1.0" encoding="UTF-8" standalone="no"?>
<svg
   xmlns:dc="http://purl.org/dc/elements/1.1/"
   xmlns:cc="http://creativecommons.org/ns#"
   xmlns:rdf="http://www.w3.org/1999/02/22-rdf-syntax-ns#"
   xmlns:svg="http://www.w3.org/2000/svg"
   xmlns="http://www.w3.org/2000/svg"
   viewBox="0 0 1110.1067 929.09332"
   height="929.09332"
   width="1110.1067"
   xml:space="preserve"
   id="svg2"
   version="1.1"><metadata
     id="metadata8"><rdf:RDF><cc:Work
         rdf:about=""><dc:format>image/svg+xml</dc:format><dc:type
           rdf:resource="http://purl.org/dc/dcmitype/StillImage" /></cc:Work></rdf:RDF></metadata><defs
     id="defs6" /><g
     transform="matrix(1.3333333,0,0,-1.3333333,0,929.09333)"
     id="g10"><g
       transform="scale(0.1)"
       id="g12"><path
         id="path14"
         style="fill:#1f1d1d;fill-opacity:1;fill-rule:nonzero;stroke:none"
         d="m 1448.66,4903.14 c -41.22,-43.22 -68.97,-93.12 -83.34,-146.52 -14.51,-53.38 -16.83,-108.82 -11.95,-164.64 5.03,-55.94 17.2,-112.85 36.37,-171.94 19.21,-59.11 45.14,-120.73 79.7,-186.17 5.77,-11.15 12.78,-23.8 21.16,-38.96 8.46,-15.08 18.37,-32.61 30.63,-52.99 24.34,-40.85 57.46,-93.62 104.87,-162.32 24.27,-35.29 57.62,-81.94 94.44,-131.29 36.76,-49.38 77.05,-101.46 113.39,-148.77 18.15,-23.66 35.29,-46.12 50.38,-66.44 7.36,-10.09 14.38,-19.69 20.95,-28.68 3.71,-5.22 7.3,-10.26 10.75,-15.1 3,-4.07 5.89,-7.99 8.64,-11.72 5.53,-7.45 10.54,-14.21 14.94,-20.14 4.58,-5.93 7.28,-11.01 10.13,-15.17 5.37,-8.31 8.36,-12.93 8.36,-12.93 0,0 2.49,-3.86 7.02,-10.88 4.15,-7.36 10.16,-18.03 17.62,-31.29 3.92,-6.51 7.68,-14.02 11.59,-22.23 4.02,-8.13 8.33,-16.83 12.87,-26.02 4.31,-9.34 8.37,-19.45 12.94,-29.77 2.26,-5.18 4.56,-10.46 6.89,-15.83 2.05,-5.52 4.14,-11.12 6.25,-16.81 4.12,-11.42 9.04,-22.86 12.86,-35.03 3.93,-12.11 7.94,-24.46 11.99,-36.9 7.04,-25.26 14.71,-50.9 20.13,-76.78 6.48,-25.62 10.42,-51.41 15.07,-75.79 3.27,-24.57 7.32,-47.84 8.98,-69.19 5.71,-50.43 6.39,-96.34 6.22,-137.65 -1.05,-41.24 -3.49,-77.95 -7.58,-110.04 -2.47,-15.93 -3.44,-31.23 -6.4,-44.91 -2.55,-13.85 -4.91,-26.67 -7.09,-38.51 -2.82,-11.67 -5.39,-22.35 -7.75,-32.11 -2.26,-9.82 -4.44,-18.67 -6.99,-26.36 -18.17,-63.31 -40.02,-118.29 -66,-166.94 -26.3,-48.39 -56.28,-90.59 -90.55,-128.45 -8.98,-9.14 -17.9,-18.22 -26.79,-27.27 -9.3,-8.68 -19.3,-16.49 -29.06,-24.83 -4.96,-4.03 -9.79,-8.37 -14.96,-12.17 l -15.98,-10.85 -16.23,-10.85 c -5.46,-3.6 -10.84,-7.48 -16.76,-10.32 -11.73,-6.09 -23.55,-12.23 -35.52,-18.45 -5.95,-3.29 -12.24,-5.82 -18.65,-8.2 -6.4,-2.45 -12.84,-4.9 -19.33,-7.38 -25.77,-10.85 -54.07,-16.22 -83.18,-22.92 29.11,6.68 57.81,9.88 84.79,17.56 6.85,1.6 13.65,3.19 20.39,4.77 6.81,1.47 13.55,3.02 20.03,5.28 13.23,4.01 26.29,7.98 39.25,11.91 6.65,1.7 12.84,4.41 19.17,6.81 6.34,2.44 12.67,4.87 18.97,7.3 l 19.08,7.24 c 6.27,2.61 12.23,5.78 18.41,8.64 12.18,5.99 24.83,11.49 36.96,18.02 11.93,7.02 23.89,14.06 35.93,21.14 47.2,30.22 93.17,67.57 135.59,115.72 42.05,48.3 80.18,107.24 111,178.38 4.21,8.68 7.95,18.63 12.02,29.67 4.12,11.07 8.64,23.19 13.56,36.43 4.09,13.45 8.5,28.04 13.28,43.79 2.52,7.87 4.67,16.11 6.62,24.69 2.04,8.59 4.15,17.47 6.33,26.66 8.51,36.83 15.35,79 20.44,126.7 4.13,47.68 7.18,100.98 4.15,159.68 -0.35,24.89 -3.4,52.06 -5.88,80.82 -3.88,28.58 -7.33,58.79 -13.68,89.03 -5.29,30.43 -13.24,60.88 -20.89,90.83 -4.46,14.85 -8.88,29.55 -13.22,44.02 -4.33,14.46 -9.88,28.35 -14.62,42.04 -2.47,6.82 -4.91,13.53 -7.32,20.16 -2.74,6.52 -5.43,12.92 -8.07,19.22 -5.34,12.57 -10.31,24.71 -15.5,36.09 -5.53,11.27 -10.77,21.95 -15.66,31.92 -4.83,9.99 -9.51,19.21 -14.35,27.39 -9.38,16.48 -16.84,29.76 -22.27,38.79 -5.79,8.9 -8.97,13.78 -8.97,13.78 0,0 -3.8,5.84 -10.65,16.37 -3.49,5.09 -7.5,12.06 -12.66,18.74 -5.11,6.83 -10.92,14.6 -17.35,23.18 -3.22,4.28 -6.59,8.77 -10.1,13.44 -2.91,4.01 -5.93,8.18 -9.06,12.51 -7.41,10.01 -15.33,20.54 -23.66,31.37 -16.69,21.63 -35.07,44.65 -54.36,68.32 -38.57,47.31 -80.64,97.36 -119.5,143.78 -38.92,46.37 -74.46,89.2 -100.65,121.23 -51.06,62.41 -87.37,109.31 -114.62,145.29 -27.19,36.02 -45.21,61.14 -58.74,80.37 -39.96,56.72 -74.34,107.85 -103.56,156.8 -29.19,48.94 -53.22,95.71 -70.92,143.59 -17.4,47.78 -28.64,97.3 -25.36,149.32 3.08,51.61 23.14,106.14 64.62,149.72" /><path
         id="path16"
         style="fill:#1f1d1d;fill-opacity:1;fill-rule:nonzero;stroke:none"
         d="m 1469.4,6442.54 c 10.2,17.11 18.61,34.35 28.1,50.36 9.43,16.03 19.09,31.29 29.51,45.63 20.69,28.73 43.44,54.47 69.1,76.99 25.61,22.4 54.39,41.78 86.72,53.73 8.33,2.31 16.24,5.6 24.86,7.41 4.33,0.78 8.7,1.58 13.13,2.38 4.38,0.83 8.57,1.79 13.86,2.3 20.21,2.82 40.7,4.98 62.61,5.46 7.41,0.24 15.94,0.63 26.27,0.17 5.16,-0.15 10.69,-0.09 16.76,-0.39 6.07,-0.4 12.64,-0.84 19.76,-1.31 14.26,-1.23 30.77,-2.86 50.16,-5.8 19.42,-2.76 41.67,-6.76 67.78,-12.04 30.72,-6.02 72.21,-15.77 120.91,-23.79 24.28,-4 50.77,-7.04 78.25,-8 27.42,-1.2 56.7,1.21 84.67,7.02 7.01,1.68 13.98,2.88 20.75,5.08 6.77,2.23 13.44,4.42 20.01,6.58 6.55,2.2 12.67,5.35 18.83,7.97 6.11,2.73 12.14,5.37 17.56,8.71 11.11,6.3 21.66,12.39 30.47,19.25 4.51,3.32 8.88,6.54 13.08,9.63 4,3.23 7.55,6.56 11.08,9.65 14.47,12.19 23.94,23.37 30.96,30.85 7.15,7.45 10.22,11.94 10.22,11.94 0,0 2.99,3.8 8.99,11.44 6.36,7.56 14.32,19.37 24.74,35.29 5.57,7.88 10.21,17.09 16.13,27.22 2.83,5.09 6.02,10.39 8.94,16.03 2.78,5.66 5.68,11.58 8.72,17.75 3,6.2 6.13,12.65 9.39,19.36 2.87,6.77 5.86,13.8 8.95,21.09 1.55,3.66 3.11,7.37 4.71,11.16 l 2.4,5.72 1.21,2.91 0.16,0.36 0.07,0.18 c 25.35,-8.37 -220.47,73.4 -116.43,38.73 l -0.02,-0.11 -0.19,-0.84 -0.38,-1.68 c -1.91,-9.07 -4.41,-18.31 -5.86,-28.09 v -0.01 c -2.56,-14.6 -4.88,-32.03 -5.79,-50.85 -1.25,-18.84 -0.61,-38.96 0.76,-58.94 1.76,-19.88 4.33,-39.69 8.02,-57.75 3.41,-18.21 7.68,-34.72 11.47,-48.93 10.43,-37.69 21.95,-69.82 32.17,-98.02 10.35,-28.11 19.32,-52.36 26.72,-73.54 7.4,-21.21 12.96,-39.3 17.23,-54.8 4.33,-15.52 7.08,-28.32 9.13,-38.77 3.99,-21.13 6.36,-41 6.96,-60.06 0.49,-9.58 0.06,-18.78 -0.24,-28.04 -0.86,-9.58 -1.64,-19.06 -2.7,-27.75 -1.4,-18.12 -5.84,-33.42 -10.88,-49.4 -6.07,-15.25 -12.94,-30.36 -22.36,-44.09 -18.08,-28.03 -42.22,-52.56 -69.49,-75.12 -27.21,-22.8 -57.76,-43.51 -90.28,-66.46 65.6,45.52 130.95,65.65 187.73,117.39 14.37,12.58 27.17,27.76 39.23,44.61 2.72,4.42 5.45,8.88 8.21,13.37 2.85,4.5 5.47,9.16 7.61,14.1 2.3,4.92 4.61,9.88 6.95,14.88 2.26,5.04 3.69,10.1 5.56,15.28 3.71,10.46 6.81,20.73 9.99,31.32 2.67,11.09 5.41,22.69 7.04,34.63 3.55,23.9 4.69,49.32 3.07,75.56 -0.84,12.94 -2.15,28.87 -5.13,47.34 -2.8,18.51 -6.88,39.84 -12.57,63.47 -5.55,23.69 -12.71,49.81 -20.43,78.33 -7.7,28.46 -16.1,59.31 -23,92.49 -2.43,12.4 -5.17,26.62 -7.09,41.46 -2.22,14.9 -3.33,30.37 -4.06,45.6 -0.27,15.16 -0.29,30.09 1.16,43.7 1.11,13.65 3.16,26.07 5.23,36.5 v 0 c 1.19,6.99 3.27,13.58 4.7,20.06 l 0.29,1.21 0.14,0.6 0.02,0.07 c 104.07,-34.59 -141.74,47.23 -116.44,38.76 l -0.07,-0.16 -0.14,-0.32 -1.12,-2.5 -2.21,-4.93 c -1.46,-3.26 -2.88,-6.46 -4.29,-9.61 -2.78,-6.31 -5.47,-12.38 -8.06,-18.22 -2.81,-5.6 -5.52,-10.99 -8.12,-16.16 -2.59,-5.17 -5.07,-10.11 -7.44,-14.85 -2.43,-4.65 -5.02,-8.79 -7.32,-12.89 -4.8,-7.99 -8.61,-15.78 -12.84,-21.58 -8.03,-12.17 -13.94,-21.3 -18.43,-26.51 -4.26,-5.55 -6.39,-8.3 -6.39,-8.3 0,-0.01 -2.28,-3.44 -7.08,-8.31 -4.72,-4.99 -11.24,-12.86 -20.18,-20.37 -17.73,-15.79 -42.61,-33.26 -76.46,-41.01 -33.46,-8.78 -77.33,-7.81 -120.97,-3.23 -43.63,4.6 -86.82,11.29 -119.61,14.86 -27.87,3.31 -52.82,5.34 -74.83,6.44 -22.03,1.02 -41.17,1.1 -57.74,0.61 -8.31,-0.39 -15.96,-0.76 -23.05,-1.1 -7.09,-0.47 -13.65,-1.23 -19.67,-1.79 -12.04,-1.02 -22.1,-2.71 -30.77,-4.11 -25.61,-3.88 -49.53,-10.35 -71.19,-17.45 -5.31,-1.52 -11.23,-3.91 -16.9,-6.15 -5.63,-2.26 -11.2,-4.51 -16.71,-6.72 -10.8,-4.84 -20.65,-11.33 -30.43,-16.82 -37.78,-24.8 -63.79,-55.46 -84.8,-86.08 -20.93,-30.87 -36.9,-62.48 -51.95,-95.16 -7.5,-16.36 -14.7,-33.04 -22.16,-50.12 -7.6,-17 -14.73,-34.82 -24.94,-51.96" /><path
         id="path18"
         style="fill:#1f1d1d;fill-opacity:1;fill-rule:nonzero;stroke:none"
         d="m 1504.37,5038.45 c 6.82,18.73 13.45,36.72 21.56,53.38 8.98,16.33 17.65,32.09 27.32,46.96 10.11,14.7 20.12,29 30.51,43.04 10.84,13.91 21.63,27.75 32.52,41.74 11.14,14.16 22.38,28.47 33.91,43.14 11.3,15.2 22.93,30.82 34.65,47.52 5.58,8.72 11.26,17.59 17.06,26.66 5.6,9.31 11.87,18.15 17,28.88 10.38,21.08 22.68,42.19 30.56,68.89 2.52,8.77 5.9,18.59 8.56,31.31 1.53,6.23 3.01,13.1 4.17,20.87 1.46,7.59 2.41,16.15 3.18,25.58 1.29,18.86 1.61,41.87 -4.69,69.62 -2.91,13.83 -8.27,28.61 -15.46,43.72 -7.56,14.9 -17.34,29.97 -29.38,43.91 -13.63,16.12 -34.11,34.05 -56.53,48.8 -22.43,14.99 -46.49,27.55 -68.01,37.71 -21.56,10.23 -40.76,18.44 -54.44,24.35 -13.58,5.81 -22.04,9.44 -22.04,9.44 0,0 -6.91,3.06 -18.25,8.08 -5.56,2.51 -12.21,5.51 -19.63,8.86 -3.76,1.75 -7.71,3.59 -11.82,5.51 -2.06,0.96 -4.16,1.95 -6.29,2.95 -1.85,0.93 -3.72,1.88 -5.62,2.83 -7.42,3.97 -16.02,7.43 -23.47,12.12 -3.78,2.28 -7.6,4.58 -11.42,6.89 -3.88,2.22 -7.73,4.48 -11.2,7.21 -14.62,9.93 -27.77,20.87 -38.31,30.49 -22.39,20.45 -39.27,42.76 -52.97,64.06 -7.21,10.44 -12.6,21.34 -18.2,31.35 -5.12,10.29 -9.65,20.21 -13.75,29.62 -3.53,9.68 -7.55,18.47 -10.26,27.13 -2.7,8.66 -5.49,16.62 -7.69,24.13 -3.99,15.16 -7.44,27.86 -9.37,38.49 -8.83,42.54 -13.6,83 -15.15,118.82 -0.17,4.5 -0.34,8.96 -0.5,13.38 0.05,4.31 0.35,8.44 0.49,12.66 0.23,4.18 0.22,8.5 0.58,12.56 0.55,3.96 1.1,7.89 1.64,11.81 0.62,8.25 3.3,14.97 4.96,22.66 0.98,3.72 2.74,6.87 4.06,10.42 1.41,3.48 2.67,7.14 4.8,10.17 l 5.79,9.78 c 2.27,3.05 4.79,5.96 7.21,9.02 l 3.73,4.57 4.35,4.1 c 2.93,2.73 5.79,5.61 8.88,8.31 12.93,10.19 27.17,19.9 42.89,28.04 31.19,16.8 65.41,30.95 102.43,45.49 -37.24,-14.45 -73,-22.4 -107.88,-31.87 -17.54,-4.48 -34.76,-10.27 -52.16,-17.44 -4.28,-1.99 -8.51,-4.25 -12.81,-6.42 l -6.47,-3.33 -6.15,-4.08 c -4.09,-2.79 -8.35,-5.49 -12.41,-8.54 l -11.47,-10.3 c -4.07,-3.37 -7.27,-7.43 -10.64,-11.49 -3.23,-4.1 -7.01,-8.13 -9.84,-12.56 -5.32,-8.91 -11.88,-18.11 -15.67,-27.89 -2.18,-4.91 -4.37,-9.86 -6.58,-14.84 -1.97,-5.01 -3.36,-10.04 -5.07,-15.18 -1.6,-5.13 -3.36,-10.39 -4.8,-15.64 -1.16,-5.22 -2.32,-10.48 -3.49,-15.79 -8.76,-42.72 -12.49,-87.92 -8.67,-139.92 0.57,-12.85 2.92,-28.55 5.65,-47.49 1.56,-9.45 3.92,-19.61 6.18,-30.65 2.33,-11.03 6.06,-22.68 9.53,-35.27 4.03,-12.45 8.76,-25.69 14.34,-39.61 6.13,-13.73 12.31,-28.47 20.88,-43.27 16.36,-29.8 37.97,-61.98 68.24,-92.19 14.17,-14.23 32.3,-30.38 52.65,-44.82 9.88,-7.68 21.03,-13.64 31.48,-20.34 10.55,-6.65 21.34,-11.22 31.39,-16.53 2.52,-1.25 5.02,-2.5 7.48,-3.72 2.21,-1.03 4.39,-2.05 6.54,-3.04 4.31,-1.98 8.45,-3.89 12.38,-5.7 8.06,-3.55 15.28,-6.72 21.32,-9.38 11.98,-5.07 19.29,-8.16 19.29,-8.16 0,0 8.58,-3.65 22.36,-9.5 13.66,-5.77 32.19,-13.49 51.39,-22.01 19.24,-8.53 38.79,-18.06 54.57,-27.59 15.95,-9.47 27.8,-18.84 35.03,-26.06 6.32,-6.34 10.92,-12.56 14.89,-18.6 3.5,-6.26 6.69,-12.24 8.58,-18.68 4.3,-12.57 5.72,-25.66 6.19,-37.52 0.15,-5.99 0.21,-11.62 -0.21,-17.07 -0.11,-5.34 -0.6,-10.42 -1.21,-15.17 -0.79,-9.39 -2.56,-17.6 -3.51,-24.62 -7.77,-40 -22.37,-78.33 -34.94,-114.53 -7,-18.16 -13.73,-35.65 -20.31,-52.72 -6.85,-17.22 -13.53,-34.01 -20.15,-50.64 -26.46,-66.83 -51.32,-130.77 -74.28,-206.86" /><path
         id="path20"
         style="fill:#1f1d1d;fill-opacity:1;fill-rule:nonzero;stroke:none"
         d="m 2618.73,6343.84 c 29.1,-27.43 46.13,-57.11 59.96,-89.15 13.69,-32.28 24.77,-67.37 36.23,-112.64 1.9,-7.69 4.49,-17.74 7.63,-32.54 3.28,-14.74 7.09,-34.24 11.48,-60.67 4.91,-29.89 10.14,-70.29 14,-114.2 4.01,-43.88 6.39,-91.28 7.67,-134.92 1.16,-43.65 1.17,-83.53 0.71,-112.47 -0.32,-14.47 -0.58,-26.2 -0.76,-34.32 -0.24,-8.03 -0.38,-12.48 -0.38,-12.48 0,0 -0.13,-3.7 -0.38,-10.42 -0.53,-6.73 -1.3,-16.48 -2.25,-28.6 -0.49,-6.06 -1.02,-12.71 -1.6,-19.87 -0.82,-7.17 -1.68,-14.85 -2.61,-22.97 -1.55,-16.26 -4.19,-34.07 -7.07,-52.89 -1.23,-9.44 -2.88,-19.07 -4.84,-28.81 -1.81,-9.77 -3.66,-19.72 -5.52,-29.76 -4.87,-19.75 -8.52,-40.28 -14.38,-59.81 -9.95,-39.68 -23.64,-76.79 -35.29,-107.65 -6.76,-16.33 -13.31,-30.96 -19.02,-44.26 -6.44,-12.93 -12.16,-24.44 -17.22,-34.61 -5.15,-10.14 -10.39,-18.49 -14.46,-25.94 -4.24,-7.33 -7.54,-13.63 -10.58,-18.51 -12.72,-19.45 -23.24,-37.6 -34.81,-53.2 -5.65,-7.9 -10.64,-15.94 -16.24,-23.13 -5.63,-7.17 -11.12,-14.17 -16.56,-21.12 l -8.13,-10.38 c -2.81,-3.34 -5.81,-6.47 -8.73,-9.7 -5.92,-6.35 -11.88,-12.74 -17.96,-19.27 -12.32,-12.83 -26.67,-24.29 -42.17,-36.81 15.51,12.49 31.08,22.36 45.23,33.27 7.18,5.44 14.21,10.77 21.19,16.07 3.52,2.68 7.16,5.23 10.63,8 l 10.23,8.62 c 6.92,5.86 13.9,11.76 21.04,17.8 7.22,6.09 13.8,13.15 21.09,20.15 14.81,13.84 28.71,30.58 44.39,49.46 3.8,4.72 8,10.83 13.26,18.05 5.11,7.31 11.58,15.56 18.03,25.68 6.35,10.21 13.54,21.77 21.61,34.77 7.23,13.45 15.54,28.32 23.96,45.13 14.87,31.6 31.97,70.22 44.55,111.68 3.5,10.27 6.72,20.7 9.41,31.25 2.84,10.52 5.67,21.04 8.48,31.47 2.31,10.53 4.6,20.98 6.86,31.24 2.36,10.25 4.34,20.37 5.89,30.29 3.48,19.77 6.58,38.51 8.42,55.57 1.05,8.52 2.04,16.59 2.97,24.13 0.65,7.6 1.27,14.67 1.82,21.11 1.03,12.9 1.85,23.28 2.41,30.44 0.25,7.19 0.38,11.15 0.38,11.15 0,0 0.15,4.68 0.41,13.14 0.24,8.37 0.49,20.46 0.62,35.35 0.25,29.79 -0.32,70.82 -2.86,115.72 -2.63,44.88 -7.19,93.62 -14.03,138.72 -6.7,45.1 -15.32,86.52 -23.16,117.06 -3.57,13.5 -6.6,25.25 -9.73,35.42 -3.1,10.18 -5.61,18.92 -8.24,26.38 -4.88,15 -8.75,25.18 -11.68,32.91 -17.39,45.66 -36.92,79.25 -57.37,108.98 -20.73,29.66 -43.4,55.03 -72.53,82.09" /><path
         id="path22"
         style="fill:#1f1d1d;fill-opacity:1;fill-rule:nonzero;stroke:none"
         d="m 2687.15,5081.5 c 22.37,33 51.12,59.63 83.17,78.04 31.87,18.78 66.21,30.31 100.52,37.17 68.95,13.49 137.54,10.05 206.13,-0.15 68.77,-10.4 138.13,-28.4 211.94,-51.91 73.79,-23.62 152.07,-53.02 238.46,-89.24 29.23,-12.38 67.63,-28.68 122.48,-54.42 27.41,-12.9 58.98,-28.03 95.34,-46.5 36.35,-18.61 77.42,-40.04 123.65,-66.57 45.12,-26.1 92.07,-55.6 140.14,-90.79 47.82,-35.44 96.62,-75.83 144.94,-121.2 96.95,-90.39 191.83,-200.79 277.51,-324.83 171.79,-247.65 306.22,-550.02 372.18,-837.37 4.3,-17.9 7.75,-35.84 11.64,-53.58 3.71,-17.71 6.5,-34.7 9.81,-51.89 2.97,-17.22 4.88,-34.93 7.45,-52.15 2.24,-17.94 4.45,-35.74 6.65,-53.39 8.48,-71.4 15.21,-142.69 24.61,-212.59 9.27,-69.87 20.9,-138.48 37.26,-203.27 16.43,-64.7 36.67,-125.7 61.53,-179.46 2.99,-6.74 5.94,-13.41 8.85,-20.01 3.3,-6.44 6.56,-12.81 9.78,-19.1 6.52,-12.53 12.88,-24.73 19.06,-36.61 6.94,-11.46 13.69,-22.61 20.24,-33.41 6.65,-10.78 12.61,-21.23 20.05,-31.26 7.1,-10.02 13.95,-19.69 20.55,-29.01 6.65,-9.28 12.89,-18.46 19.87,-25.74 13.53,-15.27 25.91,-29.22 37.04,-41.78 2.79,-3.13 5.52,-6.16 8.15,-9.11 2.75,-2.72 5.39,-5.34 7.97,-7.89 5.16,-5.08 9.97,-9.84 14.45,-14.25 8.98,-8.8 16.59,-16.26 22.73,-22.29 6.08,-6.07 10.93,-10.52 14.39,-13.33 3.37,-2.88 5.11,-4.36 5.11,-4.36 0,0 5.78,-4.95 16.85,-14.41 11.18,-9.31 26.96,-23.86 49.75,-39.96 11.21,-8.24 23.69,-17.4 37.37,-27.44 14.34,-9.11 29.95,-19.02 46.72,-29.68 4.21,-2.64 8.49,-5.33 12.84,-8.07 4.52,-2.46 9.11,-4.96 13.78,-7.51 9.34,-5.04 19,-10.26 28.94,-15.62 19.63,-11.27 41.73,-20.31 64.54,-30.74 5.72,-2.55 11.52,-5.14 17.38,-7.75 5.92,-2.45 12.04,-4.57 18.16,-6.9 12.28,-4.55 24.83,-9.19 37.66,-13.93 12.73,-5.08 26.2,-8.43 39.72,-12.65 13.58,-3.95 27.37,-8.33 41.53,-12.05 14.21,-3.29 28.7,-6.63 43.41,-10.04 7.37,-1.65 14.79,-3.43 22.29,-4.93 7.52,-1.26 15.1,-2.53 22.73,-3.8 15.29,-2.49 30.79,-5.2 46.53,-7.52 15.74,-1.71 31.7,-3.44 47.87,-5.18 64.6,-5.93 132.54,-8.24 201.95,-4.18 8.69,0.4 17.43,0.79 26.2,1.2 8.74,0.51 17.37,1.44 26.12,2.16 17.53,1.61 34.97,2.9 52.96,4.87 18.22,2.38 36.59,4.77 55.09,7.19 18.46,2.83 36.94,6.69 55.59,10.07 148.59,30.14 297.9,88.69 434.23,171.6 136.29,83 260.15,189.07 363.13,309.42 103.52,119.94 184.81,255.21 240.91,392.5 56.84,137.16 85.36,277.35 92.14,405.04 1.49,39.14 2.08,76.33 -0.11,111.97 -0.4,8.89 -0.79,17.65 -1.18,26.31 -0.94,8.74 -1.87,17.37 -2.77,25.89 -0.96,8.49 -1.91,16.88 -2.84,25.16 -1.01,8.26 -2.62,16.25 -3.89,24.21 -10.41,63.54 -25.66,118.81 -43.41,165.89 -2.12,5.92 -4.2,11.73 -6.24,17.45 -2.37,5.61 -4.68,11.12 -6.96,16.54 -4.58,10.79 -8.99,21.21 -13.26,31.26 -9.8,19.55 -18.24,37.89 -27.33,54.17 -9.39,16.13 -17.35,31.2 -25.8,44.29 -8.53,13 -16.24,24.75 -23.16,35.3 -7.38,10.4 -15.09,20.36 -22.49,30.3 -3.77,4.92 -7.35,9.91 -11.19,14.66 -3.97,4.66 -7.92,9.28 -11.83,13.88 -7.93,9.11 -15.42,18.33 -23.45,26.9 -8.22,8.38 -16.34,16.65 -24.37,24.83 -7.82,8.33 -16.33,15.79 -24.67,23.21 -8.36,7.4 -16.49,14.81 -24.76,21.87 -8.58,6.68 -17.09,13.28 -25.5,19.82 -8.35,6.57 -16.68,12.94 -25.47,18.57 -68.83,47.41 -137.15,79.8 -206.53,103.39 -34.82,11.48 -70.14,20.22 -106.11,24.78 -17.94,2.43 -36.16,3.16 -54.32,3.05 -18.16,-0.95 -36.57,-2.34 -54.22,-6.92 -36.17,-7.14 -69.01,-24.43 -101.46,-42.39 -32.39,-18.5 -64.71,-38.99 -97.61,-61.48 32.9,22.48 66.09,41.72 99.44,57.98 33.5,15.73 67.21,29.55 101.85,32.31 34.5,4.12 68.49,-0.38 101.1,-9.38 32.66,-8.94 64.03,-22.19 94.56,-37.92 30.54,-15.84 60.2,-34.42 89.61,-54.92 7.39,-5.06 14.58,-10.48 21.91,-15.79 6.99,-5.63 14.03,-11.31 21.14,-17.03 14.48,-10.95 27.92,-23.76 41.81,-36.37 55.16,-50.95 105.28,-114.76 149.41,-191.97 5.1,-9.74 10.77,-20.6 17.06,-32.61 6.26,-11.99 11.86,-25.81 18.69,-40.4 6.54,-14.76 12.26,-31.36 19.18,-48.84 2.87,-8.97 5.85,-18.27 8.94,-27.91 1.55,-4.8 3.13,-9.69 4.74,-14.65 1.31,-5.07 2.64,-10.22 4,-15.45 11.65,-41.56 20.46,-89.83 24.94,-144.2 0.52,-6.8 1.38,-13.68 1.64,-20.64 0.19,-6.96 0.4,-14.01 0.6,-21.15 0.2,-7.13 0.41,-14.35 0.62,-21.67 -0.25,-7.45 -0.52,-14.99 -0.78,-22.63 -0.39,-30.45 -3.44,-62.74 -7.24,-96.31 -6.56,-54.94 -18.94,-111.92 -35.71,-169.78 -16.5,-57.97 -39.49,-116.41 -67.32,-174.28 -55.65,-115.73 -132.49,-228.99 -226.9,-328.63 -94.07,-99.8 -204.41,-186.75 -322.44,-253.04 -118.03,-66.36 -243.68,-110.98 -364.86,-132.67 -15.21,-2.33 -30.22,-5.11 -45.26,-7.13 -15.11,-1.67 -30.11,-3.33 -44.98,-4.98 -15.15,-1.39 -30.73,-2.2 -45.87,-3.33 -7.6,-0.48 -15.2,-1.18 -22.68,-1.47 -7.45,-0.19 -14.87,-0.38 -22.25,-0.56 -59.18,-2.28 -115.24,0.51 -167.62,5.96 -13.04,1.57 -25.91,3.11 -38.61,4.64 -12.48,2.21 -24.78,4.39 -36.9,6.54 -6.06,1.06 -12.07,2.13 -18.03,3.18 -5.9,1.26 -11.64,2.81 -17.4,4.15 -11.5,2.72 -22.81,5.4 -33.92,8.03 -10.98,2.99 -21.5,6.54 -31.99,9.64 -10.37,3.35 -20.9,5.83 -30.49,9.91 -9.76,3.69 -19.31,7.31 -28.65,10.86 -4.65,1.81 -9.35,3.39 -13.83,5.29 -4.41,2.04 -8.77,4.06 -13.08,6.06 -17.15,8.1 -33.98,14.84 -48.63,23.56 -7.49,4.04 -14.77,7.98 -21.81,11.79 -3.53,1.89 -7,3.76 -10.42,5.59 -3.26,2.1 -6.47,4.16 -9.62,6.19 -12.66,8.03 -24.43,15.49 -35.26,22.36 -10.32,7.66 -19.74,14.66 -28.21,20.94 -17.33,12.02 -29.3,23.41 -37.84,30.51 -8.47,7.22 -12.9,11 -12.9,11 0,0 -1.33,1.12 -3.91,3.33 -2.68,2.09 -6.37,5.56 -11.04,10.33 -4.75,4.67 -10.64,10.44 -17.58,17.27 -3.49,3.4 -7.24,7.06 -11.25,10.97 -2.01,1.96 -4.08,3.97 -6.21,6.05 -1.91,2.16 -3.86,4.37 -5.88,6.66 -8.13,9.06 -17.15,19.15 -27.03,30.18 -5.39,5.33 -9.28,11.52 -13.69,17.81 -4.43,6.26 -9.04,12.76 -13.8,19.49 -4.98,6.37 -9.45,14.45 -14.3,22.32 -4.85,7.92 -9.86,16.09 -15.01,24.49 -4.58,8.75 -9.29,17.74 -14.11,26.98 -2.44,4.6 -4.91,9.27 -7.41,13.99 -2.19,4.92 -4.41,9.9 -6.65,14.92 -37.5,79.67 -64.22,185.19 -82.77,314.35 -9.38,64.52 -17.67,134.75 -27.86,209.43 -2.71,18.83 -5.44,37.82 -8.19,56.95 -3.26,19.73 -5.96,39.49 -9.92,59.57 -4.27,20.01 -8.27,40.63 -12.92,60.47 -4.8,19.71 -9.2,39.68 -14.47,59.49 -81.66,317.68 -239.79,638.72 -440.96,898.48 -100.06,130.16 -211.31,244.36 -324.44,336.88 -56.63,46.17 -113.5,87.15 -169.38,122.36 -56.07,34.89 -111.29,64.19 -162.37,88.24 -50.73,23.93 -95.79,42.99 -135.15,58.91 -39.46,15.87 -73.45,28.86 -103.08,39.51 -59.22,21.35 -100.46,34.63 -132,44.31 -93.05,28.59 -177.92,48.48 -257.67,61.64 -79.7,13.24 -154.39,19.58 -226.95,19.53 -72.45,-0.83 -143.52,-7.64 -212.61,-29.59 -34.39,-11 -68.22,-25.96 -99.17,-47.1 -31.19,-20.73 -58.71,-48.38 -81.07,-81.35" /><path
         id="path24"
         style="fill:#1f1d1d;fill-opacity:1;fill-rule:nonzero;stroke:none"
         d="m 3454.49,3589.8 c -41.74,13.23 -82.36,21.52 -123.77,18.23 -41.19,-3.01 -82.15,-17.72 -118.21,-42.66 -36.14,-24.9 -67.53,-59.14 -93.01,-100.65 -25.57,-41.59 -45.03,-90.74 -56.5,-147.7 -1.87,-9.66 -4.28,-20.85 -5.84,-34.35 -0.87,-6.76 -1.81,-14.08 -2.84,-22.03 -0.58,-8 -1.2,-16.64 -1.87,-26.02 -0.85,-9.38 -0.8,-19.54 -0.92,-30.52 -0.02,-5.5 -0.04,-11.2 -0.06,-17.12 0.28,-5.92 0.58,-12.07 0.88,-18.43 0.98,-25.5 4.83,-54.66 11.28,-88.03 1.05,-5.06 2.69,-11.81 4.52,-19.09 1.98,-7.26 3.55,-15.13 6.13,-22.22 4.82,-14.2 8.81,-25.93 8.81,-25.93 0,0 0.68,-2.48 2.31,-6.47 1.57,-4.01 3.76,-9.56 6.21,-15.8 2.56,-6.21 5.02,-13.17 8.47,-19.68 3.31,-6.52 6.52,-12.84 9.19,-18.11 11.26,-20.96 23.74,-40.39 37.63,-57.81 6.38,-8.99 14.22,-16.87 21.45,-24.74 3.67,-3.85 7.21,-7.87 10.91,-11.36 3.79,-3.31 7.52,-6.58 11.2,-9.8 28.55,-25.82 59.36,-45.29 85.01,-58.24 25.88,-13.22 48.22,-22.48 67.28,-29.75 19.07,-7.25 34.86,-12.57 47.7,-16.77 51.92,-16.71 97.96,-27.36 140.45,-36.7 42.53,-9.26 81.42,-17.06 118.8,-26.43 37.34,-9.36 73.08,-20.42 107.23,-38.28 16.88,-9.12 33.12,-20.28 47.46,-34.63 14.22,-14.29 26.32,-32.36 32.15,-53.67 -11.77,42.69 -39.49,75.47 -68.52,103.54 -29.74,27.62 -61.93,51.53 -96.04,73.52 -68.06,44.36 -145.31,81.86 -238.01,124.19 -11.36,5.29 -25.25,11.79 -41.33,19.8 -16.08,8.01 -34.32,17.61 -53.53,29.26 -19.48,11.81 -37.48,24.95 -56.92,43.9 -2.43,2.24 -4.89,4.5 -7.39,6.81 -2.31,2.36 -4.24,4.93 -6.47,7.39 -4.27,5.05 -9.05,9.75 -12.97,15.84 -8.59,11.26 -16.73,24.27 -24.45,38.72 -1.77,3.71 -4.02,8.1 -6.38,12.62 -2.56,4.37 -4.34,9.53 -6.37,13.88 -1.96,4.43 -3.72,8.36 -4.99,11.19 -1.34,2.8 -1.92,4.65 -1.92,4.65 0,0 -2.86,8.74 -6.33,19.33 -2,5.17 -3.16,11.31 -4.81,16.75 -1.61,5.48 -3.09,10.55 -4.2,14.33 -5.83,25.6 -10.31,48.33 -12.32,68.64 -0.62,5.06 -1.21,9.95 -1.78,14.66 -0.33,4.75 -0.64,9.32 -0.94,13.72 -0.57,8.83 -1.38,17.02 -1.31,24.62 -0.18,7.63 -0.33,14.67 -0.48,21.18 0.18,6.5 0.35,12.48 0.51,18 0,11.14 1.02,20.3 1.54,28.29 3.58,47.11 10.77,88.97 21.95,126.28 11.15,37.32 25.88,70.58 46.84,99 20.85,28.25 48.76,51.82 84.51,64.51 35.54,12.87 78.14,13.4 120.06,0.14" /><path
         id="path26"
         style="fill:#1f1d1d;fill-opacity:1;fill-rule:nonzero;stroke:none"
         d="m 0,1225.78 c 59.1953,80.32 125.934,143.91 196.117,197.32 70.629,53.06 144.774,96.18 223.297,135.53 78.594,39.37 162.047,74.4 253.734,109.81 45.758,17.84 93.981,35.62 144.165,54.62 25.128,9.5 50.851,19.23 77.257,29.22 26.375,10.06 53.395,20.45 81.508,30.13 37.952,13.54 87.802,31.32 160.252,57.17 36.5,12.11 78.7,26.1 127.93,42.44 24.68,7.97 50.84,17.37 79.44,25.86 28.51,8.72 58.97,18.03 91.54,27.99 213.73,65.19 503.79,143.1 821.92,205.31 19.86,3.99 39.81,7.99 59.84,12.01 20.13,3.52 40.34,7.05 60.61,10.59 40.53,7.16 81.35,14.37 122.32,21.61 41,7.11 82.43,12.63 123.8,19.05 l 62.12,9.33 c 20.71,3.22 41.45,6.24 62.27,8.57 41.59,5.09 83.14,10.17 124.58,15.24 20.72,2.39 41.35,5.4 62.06,7.26 20.69,1.95 41.34,3.89 61.94,5.83 41.18,3.86 82.14,7.72 122.76,11.54 40.7,2.69 81.07,5.37 121,8.02 19.97,1.28 39.83,2.57 59.57,3.85 9.87,0.63 19.71,1.25 29.52,1.88 9.82,0.34 19.61,0.68 29.36,1.01 39.02,1.35 77.5,2.69 115.34,4 18.92,0.65 37.68,1.3 56.27,1.93 18.59,0.07 37.01,0.13 55.25,0.19 36.48,0.11 72.21,0.24 107.1,0.36 34.91,0.58 68.86,-0.79 101.9,-1.73 33.03,-0.97 65.12,-1.89 96.16,-2.8 15.52,-0.61 30.81,-0.55 45.75,-1.67 14.92,-1.26 29.57,-2.49 43.93,-3.71 28.73,-2.42 56.31,-4.74 82.65,-6.96 52.74,-3.62 100.3,-10.36 142.16,-15.35 41.84,-5.27 77.98,-9.23 107.41,-13.48 58.75,-9.34 91.33,-14.53 91.33,-14.53 0,0 27.29,-4.29 76.92,-12.13 24.79,-4.08 54.93,-10.46 90.11,-17.13 35.13,-7.04 75.37,-14.16 119.62,-23.71 177,-38.06 421.22,-100.9 688.24,-193.3 267.39,-91.22 555.97,-214.98 826.15,-354.17 135.66,-68.52 265.68,-142.79 388.08,-215.41 60.9,-36.86 119.25,-74.44 176.1,-109.82 56.79,-35.94 111.51,-70.56 163.61,-103.52 38.43,-24.46 75.03,-47.76 109.84,-69.93 34.84,-22.14 67.69,-43.39 98.7,-63.7 62.37,-40.16 116.85,-77.228 165.33,-109.509 47.73,-33.262 89.7,-61.442 124.73,-86.832 35.1,-25.297 64.37,-46.399 88.18,-63.571 190.74,-141.449 332.89,-261.84 458.91,-385.109 7.93,-7.641 15.84,-15.277 23.72,-22.887 7.57,-7.91 15.12,-15.801 22.65,-23.683 15.1,-15.758 30.15,-31.469 45.2,-47.188 7.45,-7.949 15.32,-15.531 22.43,-23.781 l 21.52,-24.668 c 14.39,-16.492 28.86,-33.031 43.44,-49.723 15.01,-16.367 28.33,-34.277 42.41,-51.949 13.98,-17.77 28.12,-35.738 42.48,-53.969 7.38,-8.98 14.09,-18.5427 20.79,-28.2419 6.76,-9.6485 13.57,-19.3789 20.45,-29.1875 13.75,-19.6719 27.73,-39.6797 42.01,-60.1016 -101.2,171.281 -186.5,319.031 -292.32,468.68 -52.87,74.652 -110.31,150.129 -178.14,226.722 -17.01,19.18 -34.35,38.739 -52.09,58.739 -18.23,19.371 -37.36,38.629 -56.9,58.558 -9.83,9.903 -19.77,19.93 -29.84,30.082 -10.12,10.09 -20.7,19.778 -31.29,29.848 -21.4,19.891 -43.35,40.293 -65.91,61.262 -22.6,20.281 -50.81,44.507 -84.74,73.689 -33.88,29.29 -74.12,61.78 -120.52,99.82 -46.65,36.97 -99.59,79.36 -159.75,124.74 -15.01,11.47 -30.44,23.26 -46.29,35.37 -15.9,11.86 -32.23,24.02 -48.99,36.5 -33.5,24.81 -68.73,50.88 -105.71,78.26 -49.62,36.15 -101.72,74.12 -155.81,113.53 -28.13,20.05 -56.78,40.47 -85.87,61.2 -14.58,10.38 -29.28,20.84 -44.08,31.38 -14.81,10.55 -29.6,21.29 -45.22,31.3 -123.05,82.33 -254.52,166.57 -392.89,243.88 -34.58,19.32 -68.99,39.39 -104.1,58.27 -35.35,18.46 -70.75,36.97 -106.15,55.47 l -53.2,27.6 c -17.85,8.94 -35.91,17.43 -53.84,26.15 -35.99,17.21 -71.89,34.38 -107.63,51.48 -17.81,8.71 -35.91,16.67 -53.99,24.55 -18.07,7.94 -36.08,15.85 -54.03,23.74 -35.95,15.7 -71.52,31.71 -107.26,46.44 -35.94,14.28 -71.56,28.44 -106.81,42.45 -35.31,13.83 -69.92,28.41 -105.01,40.31 -278.02,102.71 -534.73,171.26 -721.3,212.67 -46.62,10.51 -89.18,18.09 -126.27,25.61 -37.18,7.14 -69,13.91 -95.23,18.3 -52.54,8.43 -81.42,13.06 -81.42,13.06 0,0 -34.51,5.49 -96.72,15.38 -31.21,4.43 -69.6,8.61 -114.01,14.08 -44.51,5.12 -94.57,12.32 -151.9,15.82 -28.45,2.17 -58.25,4.44 -89.27,6.81 -15.5,1.16 -31.32,2.35 -47.43,3.56 -16.09,1.07 -32.28,0.93 -48.85,1.46 -33.09,0.65 -67.29,1.34 -102.5,2.03 -35.2,0.55 -71.57,1.49 -107.94,0.43 -36.58,-0.61 -74.04,-1.22 -112.27,-1.85 -19.12,-0.4 -38.42,-0.81 -57.91,-1.22 -19.43,-1.01 -39.04,-2.04 -58.82,-3.08 -39.54,-2.1 -79.76,-4.25 -120.53,-6.42 -10.19,-0.55 -20.41,-1.09 -30.67,-1.65 -10.22,-0.87 -20.48,-1.75 -30.77,-2.63 -20.56,-1.81 -41.26,-3.65 -62.07,-5.49 -41.57,-3.76 -83.6,-7.57 -125.98,-11.41 -42.19,-5.14 -84.71,-10.31 -127.48,-15.52 -85.64,-9.47 -171.37,-24.27 -257.37,-37.57 -21.52,-3.19 -42.92,-7.06 -64.28,-11.14 l -64.08,-11.9 c -42.6,-8.32 -85.27,-15.83 -127.41,-24.9 -42.08,-9.26 -83.98,-18.48 -125.6,-27.65 -20.77,-4.68 -41.47,-9.34 -62.09,-13.98 -20.49,-5.14 -40.9,-10.27 -61.21,-15.37 -40.57,-10.34 -80.74,-20.58 -120.44,-30.7 -19.86,-4.92 -39.44,-10.49 -58.86,-16.08 -19.43,-5.53 -38.73,-11.03 -57.88,-16.49 -38.22,-11.07 -75.86,-21.98 -112.83,-32.69 -36.65,-11.65 -72.64,-23.1 -107.86,-34.29 -35.1,-11.5 -69.55,-22.24 -102.84,-33.61 -33.18,-11.67 -65.49,-23.06 -96.84,-34.11 -31.26,-11.17 -61.57,-22 -90.81,-32.45 -28.97,-11.19 -56.9,-21.98 -83.68,-32.33 -65.18,-25.43 -121.94,-47.07 -170.72,-68.52 -48.92,-20.81 -90.85,-38.63 -127.12,-54.06 -35.83,-16.42 -66.07,-30.28 -92.054,-42.19 -25.867,-12.05 -47.492,-22.13 -66.191,-30.84 -27.661,-12.73 -53.934,-26.21 -79.504,-39.43 -25.52,-13.33 -50.387,-26.31 -74.668,-38.99 -24.153,-12.86 -47.918,-25.32 -70.633,-37.99 -22.676,-12.65 -44.86,-25.15 -67.012,-38.04 -44.043,-25.31 -86.129,-51.28 -126.566,-77.07 -40.25,-26.64 -78.86,-53.21 -115.926,-81.09 C 309.309,1571.19 241.047,1512.15 177.07,1446.93 113.516,1381.07 54.8945,1308.87 0,1225.78" /></g></g></svg>